<svg width="25" height="25" viewBox="0 0 25 25" fill="none" xmlns="http://www.w3.org/2000/svg">
<path d="M14.8438 17.9688H10.1562V21.0938H14.8438V17.9688Z" stroke="white" stroke-width="2" stroke-miterlimit="10"/>
<path d="M18.7498 9.37499C18.7498 5.70311 15.5467 2.73436 11.7967 3.20311C8.98419 3.51561 6.71857 5.78124 6.32794 8.59374C6.01544 10.8594 6.95294 12.8906 8.51544 14.2187C9.60919 15.1562 10.2342 16.4844 10.2342 17.8125V17.9687H14.9217V17.8125C14.9217 16.4062 15.6248 15.0781 16.7186 14.0625C17.8904 12.8906 18.7498 11.25 18.7498 9.37499Z" stroke="white" stroke-width="2" stroke-miterlimit="10"/>
<path d="M21.0938 10.1562H23.4375" stroke="white" stroke-width="2" stroke-miterlimit="10"/>
<path d="M1.5625 10.1562H3.90625" stroke="white" stroke-width="2" stroke-miterlimit="10"/>
<path d="M18.5938 16.25L20.2344 17.8906" stroke="white" stroke-width="2" stroke-miterlimit="10"/>
<path d="M4.76562 2.42188L6.40625 4.0625" stroke="white" stroke-width="2" stroke-miterlimit="10"/>
<path d="M6.40625 16.25L4.76562 17.8906" stroke="white" stroke-width="2" stroke-miterlimit="10"/>
<path d="M20.2344 2.42188L18.5938 4.0625" stroke="white" stroke-width="2" stroke-miterlimit="10"/>
<path d="M14.0625 21.0938C14.0625 21.9531 13.3594 22.6562 12.5 22.6562C11.6406 22.6562 10.9375 21.9531 10.9375 21.0938H14.0625Z" fill="white"/>
</svg>
