<svg width="25" height="25" viewBox="0 0 25 25" fill="none" xmlns="http://www.w3.org/2000/svg">
<path d="M12.5002 16.6667C13.3243 16.6667 14.1299 16.4223 14.8151 15.9644C15.5003 15.5066 16.0344 14.8559 16.3497 14.0945C16.6651 13.3331 16.7476 12.4954 16.5868 11.6871C16.4261 10.8789 16.0292 10.1364 15.4465 9.55371C14.8638 8.97099 14.1214 8.57416 13.3131 8.41338C12.5049 8.25261 11.6671 8.33513 10.9057 8.65049C10.1444 8.96586 9.49361 9.49991 9.03577 10.1851C8.57793 10.8703 8.33356 11.6759 8.33356 12.5C8.33356 13.6051 8.77255 14.6649 9.55395 15.4463C10.3354 16.2277 11.3952 16.6667 12.5002 16.6667ZM12.5002 10.4167C12.9123 10.4167 13.3151 10.5388 13.6577 10.7678C14.0003 10.9967 14.2673 11.3221 14.425 11.7027C14.5827 12.0834 14.6239 12.5023 14.5435 12.9064C14.4631 13.3106 14.2647 13.6818 13.9734 13.9731C13.682 14.2645 13.3108 14.4629 12.9067 14.5433C12.5025 14.6237 12.0837 14.5824 11.703 14.4247C11.3223 14.2671 10.9969 14 10.768 13.6574C10.5391 13.3148 10.4169 12.912 10.4169 12.5C10.4169 11.9475 10.6364 11.4176 11.0271 11.0269C11.4178 10.6362 11.9477 10.4167 12.5002 10.4167ZM3.64606 13.4135L2.6044 14.0167C2.36739 14.1534 2.15963 14.3354 1.99299 14.5524C1.82634 14.7694 1.70408 15.0172 1.63318 15.2814C1.56227 15.5457 1.54412 15.8213 1.57976 16.0926C1.61539 16.3639 1.70411 16.6255 1.84086 16.8625L3.3919 19.5479C3.52852 19.7853 3.71061 19.9934 3.92775 20.1603C4.14488 20.3272 4.3928 20.4497 4.65732 20.5207C4.92183 20.5917 5.19776 20.6099 5.4693 20.5742C5.74084 20.5384 6.00267 20.4495 6.23981 20.3125L7.2919 19.7042C7.45245 19.6135 7.63408 19.5669 7.81844 19.5689C8.00279 19.5709 8.18336 19.6215 8.3419 19.7156C8.49847 19.8063 8.6285 19.9364 8.71899 20.0931C8.80947 20.2497 8.85724 20.4274 8.85752 20.6083V21.875C8.85752 22.4275 9.07701 22.9574 9.46772 23.3481C9.85842 23.7388 10.3883 23.9583 10.9409 23.9583H14.0659C14.6184 23.9583 15.1483 23.7388 15.539 23.3481C15.9297 22.9574 16.1492 22.4275 16.1492 21.875V20.6062C16.152 20.4245 16.2018 20.2466 16.2939 20.0898C16.386 19.9331 16.5172 19.8029 16.6746 19.7121C16.832 19.6212 17.0103 19.5727 17.1921 19.5713C17.3739 19.5699 17.5529 19.6157 17.7117 19.7042L18.7627 20.3104C19.2412 20.5867 19.8099 20.6615 20.3436 20.5185C20.8773 20.3755 21.3323 20.0264 21.6086 19.5479L23.1586 16.8625C23.2953 16.6255 23.384 16.3639 23.4197 16.0926C23.4553 15.8213 23.4371 15.5457 23.3662 15.2814C23.2953 15.0172 23.1731 14.7694 23.0064 14.5524C22.8398 14.3354 22.632 14.1534 22.395 14.0167L21.3534 13.4135C21.1918 13.3194 21.0583 13.1839 20.9668 13.0209C20.8752 12.8579 20.8288 12.6734 20.8325 12.4864C20.8329 12.304 20.8812 12.1248 20.9726 11.9668C21.064 11.8089 21.1953 11.6777 21.3534 11.5864L22.395 10.9833C22.632 10.8466 22.8398 10.6646 23.0064 10.4475C23.1731 10.2305 23.2953 9.98282 23.3662 9.71856C23.4371 9.45429 23.4553 9.17865 23.4197 8.90737C23.384 8.63609 23.2953 8.37448 23.1586 8.13749L21.6065 5.45207C21.4699 5.21498 21.2879 5.00712 21.0709 4.84037C20.8539 4.67363 20.6062 4.55126 20.3419 4.48026C20.0777 4.40925 19.802 4.39101 19.5307 4.42657C19.2594 4.46213 18.9977 4.55079 18.7606 4.68749L17.7086 5.29478C17.5497 5.38362 17.3706 5.42965 17.1886 5.42837C17.0066 5.42709 16.8281 5.37854 16.6705 5.28747C16.513 5.1964 16.3818 5.06595 16.2899 4.90891C16.1979 4.75186 16.1484 4.57362 16.1461 4.39166V3.12499C16.1461 2.57246 15.9266 2.04255 15.5359 1.65185C15.1452 1.26115 14.6153 1.04166 14.0627 1.04166H10.9377C10.3852 1.04166 9.85529 1.26115 9.46459 1.65185C9.07389 2.04255 8.8544 2.57246 8.8544 3.12499V4.47291C8.85437 4.62924 8.81314 4.7828 8.73487 4.91812C8.6566 5.05345 8.54405 5.16576 8.40856 5.24374L8.24815 5.33645C8.11258 5.41352 7.9593 5.45404 7.80336 5.45404C7.64741 5.45404 7.49414 5.41352 7.35856 5.33645L6.23981 4.68749C6.00284 4.55054 5.74121 4.46163 5.46986 4.42583C5.19851 4.39003 4.92277 4.40806 4.65839 4.47887C4.39401 4.54968 4.14617 4.67189 3.92904 4.83852C3.71191 5.00515 3.52974 5.21293 3.39294 5.44999L1.84294 8.13853C1.56693 8.61681 1.49209 9.1851 1.63487 9.71853C1.77765 10.252 2.12637 10.7069 2.6044 10.9833L3.64606 11.5854C3.80748 11.6799 3.94081 11.8157 4.03235 11.9788C4.12389 12.142 4.17033 12.3265 4.1669 12.5135C4.16716 12.6962 4.11912 12.8756 4.02765 13.0337C3.93618 13.1917 3.80453 13.3228 3.64606 13.4135ZM4.68773 9.78124L3.64606 9.17916L5.19815 6.49374L6.3169 7.13957C6.76855 7.39912 7.28036 7.53571 7.80127 7.53571C8.32219 7.53571 8.834 7.39912 9.28565 7.13957L9.44606 7.04791C9.89839 6.78688 10.2742 6.41165 10.536 5.95975C10.7978 5.50786 10.9363 4.99515 10.9377 4.47291V3.12499H14.0627V4.39166C14.0649 4.9394 14.2106 5.477 14.4853 5.95087C14.7601 6.42473 15.1542 6.8183 15.6285 7.09232C16.1028 7.36635 16.6406 7.51126 17.1883 7.5126C17.7361 7.51395 18.2746 7.37168 18.7502 7.09999L19.7992 6.49374L21.3544 9.17916L20.3127 9.78124C19.8384 10.059 19.445 10.456 19.1717 10.9329C18.8983 11.4097 18.7545 11.9498 18.7545 12.4995C18.7545 13.0491 18.8983 13.5892 19.1717 14.0661C19.445 14.5429 19.8384 14.9399 20.3127 15.2177L21.3544 15.8208L19.8044 18.5062L18.7502 17.9C18.2746 17.6283 17.7361 17.486 17.1883 17.4874C16.6406 17.4887 16.1028 17.6336 15.6285 17.9077C15.1542 18.1817 14.7601 18.5752 14.4853 19.0491C14.2106 19.523 14.0649 20.0606 14.0627 20.6083V21.875H10.9377V20.6083C10.9362 20.0603 10.7909 19.5224 10.5163 19.0481C10.2417 18.5739 9.84747 18.18 9.37299 17.9059C8.8985 17.6317 8.36038 17.4869 7.81239 17.4859C7.26441 17.4848 6.72574 17.6276 6.25023 17.9L5.20127 18.5062L3.64606 15.8208L4.68773 15.2177C5.16204 14.9399 5.55542 14.5429 5.82878 14.0661C6.10214 13.5892 6.24596 13.0491 6.24596 12.4995C6.24596 11.9498 6.10214 11.4097 5.82878 10.9329C5.55542 10.456 5.16204 10.059 4.68773 9.78124Z" fill="white"/>
</svg>
