<svg width="25" height="25" viewBox="0 0 25 25" fill="none" xmlns="http://www.w3.org/2000/svg">
<path d="M22.6562 17.1875C23.0875 17.1875 23.4375 16.8375 23.4375 16.4062V2.34375C23.4375 1.9125 23.0875 1.5625 22.6562 1.5625H13.2812V0.78125C13.2812 0.35 12.9312 0 12.5 0C12.0688 0 11.7188 0.35 11.7188 0.78125V1.5625H2.34375C1.9125 1.5625 1.5625 1.9125 1.5625 2.34375V16.4062C1.5625 16.8375 1.9125 17.1875 2.34375 17.1875H11.7188V21.1609L9.21328 23.6664C8.9082 23.9715 8.9082 24.466 9.21328 24.7711C9.51836 25.0762 10.0129 25.0762 10.318 24.7711L11.7188 23.3703V24.2188C11.7188 24.65 12.0688 25 12.5 25C12.9312 25 13.2812 24.65 13.2812 24.2188V23.3703L14.682 24.7711C14.8348 24.9238 15.0344 25 15.2344 25C15.4344 25 15.634 24.9238 15.7867 24.7711C16.0918 24.466 16.0918 23.9715 15.7867 23.6664L13.2812 21.1609V17.1875H22.6562ZM3.125 3.125H21.875V15.625H3.125V3.125Z" fill="white"/>
<path d="M17.9687 9.375C17.9687 9.80625 18.3187 10.1562 18.7499 10.1562C19.1812 10.1562 19.5312 9.80625 19.5312 9.375V5.46875C19.5312 5.41758 19.5257 5.36602 19.5159 5.31562C19.5108 5.29219 19.5022 5.2707 19.4956 5.24805C19.4878 5.22188 19.4819 5.19531 19.4714 5.16992C19.4601 5.14336 19.4448 5.11875 19.4308 5.09375C19.4202 5.07422 19.4116 5.05391 19.3995 5.03594C19.3421 4.95 19.2683 4.87656 19.1823 4.81914C19.164 4.80664 19.1437 4.79805 19.1245 4.7875C19.0995 4.77383 19.0749 4.75859 19.0483 4.74688C19.0229 4.73672 18.9964 4.73047 18.9702 4.72266C18.9476 4.71602 18.9261 4.70742 18.9026 4.70234C18.8526 4.69297 18.8011 4.6875 18.7499 4.6875H14.8437C14.4124 4.6875 14.0624 5.0375 14.0624 5.46875C14.0624 5.9 14.4124 6.25 14.8437 6.25H16.864L11.7187 11.3953L9.92725 9.60391C9.62217 9.29883 9.12764 9.29883 8.82256 9.60391L5.69756 12.7289C5.39248 13.034 5.39248 13.5285 5.69756 13.8336C5.85029 13.9863 6.0499 14.0625 6.2499 14.0625C6.4499 14.0625 6.64951 13.9863 6.80225 13.8336L9.3749 11.2609L11.1663 13.0523C11.4714 13.3574 11.9659 13.3574 12.271 13.0523L17.9687 7.35469V9.375Z" fill="white"/>
</svg>
